<svg width="24" height="24" viewBox="0 0 24 24" fill="none" xmlns="http://www.w3.org/2000/svg">
<path d="M16.2514 19.9983C15.3694 20.0201 14.4958 19.8368 13.7134 19.4659C12.9311 19.0949 12.2658 18.5485 11.7806 17.8785C10.2533 19.1771 8.26117 19.93 6.17143 19.9983C2.42743 19.9983 0.397714 17.5979 1.08343 14.1563C1.60457 11.5689 3.936 8.9753 4.58743 6.8929C3.32571 6.19462 1.45371 5.70831 0.576 7.13606L0 6.81809C0.459429 5.25318 1.57029 4.21198 3.17486 4.21198C4.77943 4.21198 5.96571 5.0786 7.49486 4.28056H8.71543C8.064 7.39792 6.41829 9.8918 5.54057 14.2561C5.00571 16.9308 6 18.1465 7.68 18.1465C8.92582 18.0039 10.0692 17.4463 10.8891 16.5816C10.2185 15.0573 9.8808 13.4288 9.89486 11.7871C9.89486 7.99645 11.808 4 15.0171 4C16.6629 4 17.8834 5.0412 17.8834 7.51014C17.8834 9.97908 16.2377 13.801 14.1394 16.2013C14.2528 16.7729 14.5819 17.2905 15.0702 17.665C15.5584 18.0394 16.175 18.2472 16.8137 18.2525C19.872 18.2525 22.0114 14.0815 22.0114 10.2222C22.0114 6.36295 20.1737 6.53753 20.3314 5.23447C20.3595 4.90685 20.5287 4.60255 20.8022 4.38772C21.0757 4.1729 21.4314 4.06493 21.792 4.08729C22.7451 4.08729 24 5.18459 24 9.63617C24 15.3098 20.6811 19.9983 16.2514 19.9983ZM15.5589 5.9577C14.6057 5.9577 13.6869 9.1561 13.5703 12.4605C13.5258 13.167 13.5395 13.8756 13.6114 14.5803C15.0516 12.4133 15.9288 9.97596 16.176 7.45403C16.1691 6.33178 15.9429 5.9577 15.5589 5.9577Z" fill="url(#paint0_linear_240_6)"/>
<defs>
<linearGradient id="paint0_linear_240_6" x1="24" y1="4.46767" x2="1.521" y2="21.5355" gradientUnits="userSpaceOnUse">
<stop stop-color="#E5A93C"/>
<stop offset="0.581731" stop-color="#D4AF37"/>
</linearGradient>
</defs>
</svg>
